<svg xmlns="http://www.w3.org/2000/svg" width="1920" height="979" viewBox="0 0 1920 979">
  <path id="Subtraction_1" data-name="Subtraction 1" d="M1920,979H960.929c28.716,0,58.417-.658,88.28-1.95,28.624-1.239,58.142-3.1,87.735-5.518,28.245-2.312,57.309-5.2,86.384-8.585,27.651-3.219,56.036-6.971,84.366-11.152,98.341-14.514,200.606-34.8,303.955-60.284,40.916-10.091,82.142-21.041,122.534-32.547,32.628-9.294,64.857-18.99,95.793-28.818,53.911-17.127,86.485-29.134,90.022-30.447V979Zm-961.74,0H0V0H.393V799.553c.29.108,30.455,11.357,82.537,28.039,30.49,9.766,62.361,19.435,94.729,28.739,40.455,11.629,81.793,22.713,122.866,32.946,104.556,26.048,208.057,46.8,307.629,61.685,28.787,4.3,57.62,8.165,85.7,11.478,29.557,3.488,59.1,6.466,87.808,8.85,30.1,2.5,60.119,4.416,89.214,5.7,29.529,1.3,58.929,1.976,87.385,2.014Z" fill="#fbfbfb"/>
</svg>
